<svg width="662" height="378" viewBox="0 0 662 378" fill="none" xmlns="http://www.w3.org/2000/svg">
<g filter="url(#filter0_ii_18_241)">
<g clip-path="url(#clip0_18_241)">
<rect width="576" height="378" rx="42" fill="url(#paint0_linear_18_241)"/>
<rect width="576" height="378" rx="42" fill="url(#paint1_linear_18_241)" fill-opacity="0.25"/>
<path d="M1020.4 -38.7692H-9.41085C-22.0332 -38.7692 -32.2656 -27.2687 -32.2656 -13.0821V615.496C-32.2656 629.683 -22.0332 641.183 -9.41085 641.183H1020.4C1033.02 641.183 1043.25 629.683 1043.25 615.496V-13.0821C1043.25 -27.2687 1033.02 -38.7692 1020.4 -38.7692Z" fill="url(#paint2_radial_18_241)"/>
<path d="M268.908 224.32V226.552H264.468V241H261.732V226.552H257.268V224.32H268.908ZM283.799 234.064C283.799 234.56 283.767 235.008 283.703 235.408H273.599C273.679 236.464 274.071 237.312 274.775 237.952C275.479 238.592 276.343 238.912 277.367 238.912C278.839 238.912 279.879 238.296 280.487 237.064H283.439C283.039 238.28 282.311 239.28 281.255 240.064C280.215 240.832 278.919 241.216 277.367 241.216C276.103 241.216 274.967 240.936 273.959 240.376C272.967 239.8 272.183 239 271.607 237.976C271.047 236.936 270.767 235.736 270.767 234.376C270.767 233.016 271.039 231.824 271.583 230.8C272.143 229.76 272.919 228.96 273.911 228.4C274.919 227.84 276.071 227.56 277.367 227.56C278.615 227.56 279.727 227.832 280.703 228.376C281.679 228.92 282.439 229.688 282.983 230.68C283.527 231.656 283.799 232.784 283.799 234.064ZM280.943 233.2C280.927 232.192 280.567 231.384 279.863 230.776C279.159 230.168 278.287 229.864 277.247 229.864C276.303 229.864 275.495 230.168 274.823 230.776C274.151 231.368 273.751 232.176 273.623 233.2H280.943ZM285.579 234.376C285.579 233.016 285.851 231.824 286.395 230.8C286.955 229.76 287.723 228.96 288.699 228.4C289.675 227.84 290.795 227.56 292.059 227.56C293.659 227.56 294.979 227.944 296.019 228.712C297.075 229.464 297.787 230.544 298.155 231.952H295.203C294.963 231.296 294.579 230.784 294.051 230.416C293.523 230.048 292.859 229.864 292.059 229.864C290.939 229.864 290.043 230.264 289.371 231.064C288.715 231.848 288.387 232.952 288.387 234.376C288.387 235.8 288.715 236.912 289.371 237.712C290.043 238.512 290.939 238.912 292.059 238.912C293.643 238.912 294.691 238.216 295.203 236.824H298.155C297.771 238.168 297.051 239.24 295.995 240.04C294.939 240.824 293.627 241.216 292.059 241.216C290.795 241.216 289.675 240.936 288.699 240.376C287.723 239.8 286.955 239 286.395 237.976C285.851 236.936 285.579 235.736 285.579 234.376ZM307.722 227.56C308.73 227.56 309.626 227.776 310.41 228.208C311.21 228.64 311.834 229.28 312.282 230.128C312.746 230.976 312.978 232 312.978 233.2V241H310.266V233.608C310.266 232.424 309.97 231.52 309.378 230.896C308.786 230.256 307.978 229.936 306.954 229.936C305.93 229.936 305.114 230.256 304.506 230.896C303.914 231.52 303.618 232.424 303.618 233.608V241H300.882V223.24H303.618V229.312C304.082 228.752 304.666 228.32 305.37 228.016C306.09 227.712 306.874 227.56 307.722 227.56ZM220.407 250.024C219.911 250.024 219.495 249.856 219.159 249.52C218.823 249.184 218.655 248.768 218.655 248.272C218.655 247.776 218.823 247.36 219.159 247.024C219.495 246.688 219.911 246.52 220.407 246.52C220.887 246.52 221.295 246.688 221.631 247.024C221.967 247.36 222.135 247.776 222.135 248.272C222.135 248.768 221.967 249.184 221.631 249.52C221.295 249.856 220.887 250.024 220.407 250.024ZM221.751 251.776V265H219.015V251.776H221.751ZM232.015 251.56C233.055 251.56 233.983 251.776 234.799 252.208C235.631 252.64 236.279 253.28 236.743 254.128C237.207 254.976 237.439 256 237.439 257.2V265H234.727V257.608C234.727 256.424 234.431 255.52 233.839 254.896C233.247 254.256 232.439 253.936 231.415 253.936C230.391 253.936 229.575 254.256 228.967 254.896C228.375 255.52 228.079 256.424 228.079 257.608V265H225.343V251.776H228.079V253.288C228.527 252.744 229.095 252.32 229.783 252.016C230.487 251.712 231.231 251.56 232.015 251.56ZM246.041 262.552L249.785 251.776H252.689L247.649 265H244.385L239.369 251.776H242.297L246.041 262.552ZM266.877 258.064C266.877 258.56 266.845 259.008 266.781 259.408H256.677C256.757 260.464 257.149 261.312 257.853 261.952C258.557 262.592 259.421 262.912 260.445 262.912C261.917 262.912 262.957 262.296 263.565 261.064H266.517C266.117 262.28 265.389 263.28 264.333 264.064C263.293 264.832 261.997 265.216 260.445 265.216C259.181 265.216 258.045 264.936 257.037 264.376C256.045 263.8 255.261 263 254.685 261.976C254.125 260.936 253.845 259.736 253.845 258.376C253.845 257.016 254.117 255.824 254.661 254.8C255.221 253.76 255.997 252.96 256.989 252.4C257.997 251.84 259.149 251.56 260.445 251.56C261.693 251.56 262.805 251.832 263.781 252.376C264.757 252.92 265.517 253.688 266.061 254.68C266.605 255.656 266.877 256.784 266.877 258.064ZM264.021 257.2C264.005 256.192 263.645 255.384 262.941 254.776C262.237 254.168 261.365 253.864 260.325 253.864C259.381 253.864 258.573 254.168 257.901 254.776C257.229 255.368 256.829 256.176 256.701 257.2H264.021ZM274.37 265.216C273.33 265.216 272.394 265.032 271.562 264.664C270.746 264.28 270.098 263.768 269.618 263.128C269.138 262.472 268.882 261.744 268.85 260.944H271.682C271.73 261.504 271.994 261.976 272.474 262.36C272.97 262.728 273.586 262.912 274.322 262.912C275.09 262.912 275.682 262.768 276.098 262.48C276.53 262.176 276.746 261.792 276.746 261.328C276.746 260.832 276.506 260.464 276.026 260.224C275.562 259.984 274.818 259.72 273.794 259.432C272.802 259.16 271.994 258.896 271.37 258.64C270.746 258.384 270.202 257.992 269.738 257.464C269.29 256.936 269.066 256.24 269.066 255.376C269.066 254.672 269.274 254.032 269.69 253.456C270.106 252.864 270.698 252.4 271.466 252.064C272.25 251.728 273.146 251.56 274.154 251.56C275.658 251.56 276.866 251.944 277.778 252.712C278.706 253.464 279.202 254.496 279.266 255.808H276.53C276.482 255.216 276.242 254.744 275.81 254.392C275.378 254.04 274.794 253.864 274.058 253.864C273.338 253.864 272.786 254 272.402 254.272C272.018 254.544 271.826 254.904 271.826 255.352C271.826 255.704 271.954 256 272.21 256.24C272.466 256.48 272.778 256.672 273.146 256.816C273.514 256.944 274.058 257.112 274.778 257.32C275.738 257.576 276.522 257.84 277.13 258.112C277.754 258.368 278.29 258.752 278.738 259.264C279.186 259.776 279.418 260.456 279.434 261.304C279.434 262.056 279.226 262.728 278.81 263.32C278.394 263.912 277.802 264.376 277.034 264.712C276.282 265.048 275.394 265.216 274.37 265.216ZM285.582 254.008V261.328C285.582 261.824 285.694 262.184 285.918 262.408C286.158 262.616 286.558 262.72 287.118 262.72H288.798V265H286.638C285.406 265 284.462 264.712 283.806 264.136C283.15 263.56 282.822 262.624 282.822 261.328V254.008H281.262V251.776H282.822V248.488H285.582V251.776H288.798V254.008H285.582ZM307.328 251.56C308.368 251.56 309.296 251.776 310.112 252.208C310.944 252.64 311.592 253.28 312.056 254.128C312.536 254.976 312.776 256 312.776 257.2V265H310.064V257.608C310.064 256.424 309.768 255.52 309.176 254.896C308.584 254.256 307.776 253.936 306.752 253.936C305.728 253.936 304.912 254.256 304.304 254.896C303.712 255.52 303.416 256.424 303.416 257.608V265H300.704V257.608C300.704 256.424 300.408 255.52 299.816 254.896C299.224 254.256 298.416 253.936 297.392 253.936C296.368 253.936 295.552 254.256 294.944 254.896C294.352 255.52 294.056 256.424 294.056 257.608V265H291.32V251.776H294.056V253.288C294.504 252.744 295.072 252.32 295.76 252.016C296.448 251.712 297.184 251.56 297.968 251.56C299.024 251.56 299.968 251.784 300.8 252.232C301.632 252.68 302.272 253.328 302.72 254.176C303.12 253.376 303.744 252.744 304.592 252.28C305.44 251.8 306.352 251.56 307.328 251.56ZM328.377 258.064C328.377 258.56 328.345 259.008 328.281 259.408H318.177C318.257 260.464 318.649 261.312 319.353 261.952C320.057 262.592 320.921 262.912 321.945 262.912C323.417 262.912 324.457 262.296 325.065 261.064H328.017C327.617 262.28 326.889 263.28 325.833 264.064C324.793 264.832 323.497 265.216 321.945 265.216C320.681 265.216 319.545 264.936 318.537 264.376C317.545 263.8 316.761 263 316.185 261.976C315.625 260.936 315.345 259.736 315.345 258.376C315.345 257.016 315.617 255.824 316.161 254.8C316.721 253.76 317.497 252.96 318.489 252.4C319.497 251.84 320.649 251.56 321.945 251.56C323.193 251.56 324.305 251.832 325.281 252.376C326.257 252.92 327.017 253.688 327.561 254.68C328.105 255.656 328.377 256.784 328.377 258.064ZM325.521 257.2C325.505 256.192 325.145 255.384 324.441 254.776C323.737 254.168 322.865 253.864 321.825 253.864C320.881 253.864 320.073 254.168 319.401 254.776C318.729 255.368 318.329 256.176 318.201 257.2H325.521ZM337.742 251.56C338.782 251.56 339.71 251.776 340.526 252.208C341.358 252.64 342.006 253.28 342.47 254.128C342.934 254.976 343.166 256 343.166 257.2V265H340.454V257.608C340.454 256.424 340.158 255.52 339.566 254.896C338.974 254.256 338.166 253.936 337.142 253.936C336.118 253.936 335.302 254.256 334.694 254.896C334.102 255.52 333.806 256.424 333.806 257.608V265H331.07V251.776H333.806V253.288C334.254 252.744 334.822 252.32 335.51 252.016C336.214 251.712 336.958 251.56 337.742 251.56ZM349.847 254.008V261.328C349.847 261.824 349.959 262.184 350.183 262.408C350.423 262.616 350.823 262.72 351.383 262.72H353.063V265H350.903C349.671 265 348.727 264.712 348.071 264.136C347.415 263.56 347.087 262.624 347.087 261.328V254.008H345.527V251.776H347.087V248.488H349.847V251.776H353.063V254.008H349.847Z" fill="#F4F8FA"/>
<g opacity="0.24">
<g opacity="0.13">
<path d="M0 -99.3677H1290.62ZM0 28.5837H1290.62ZM0 156.535H1290.62ZM0 284.486H1290.62ZM0 412.438H1290.62Z" fill="black"/>
<path d="M0 -99.3677H1290.62M0 28.5837H1290.62M0 156.535H1290.62M0 284.486H1290.62M0 412.438H1290.62" stroke="#DCE7FF"/>
</g>
<g opacity="0.1">
<path d="M-185.228 -237.257V440.133ZM8.36534 -237.257V440.133ZM201.959 -237.257V440.133ZM395.552 -237.257V440.133ZM589.145 -237.257V440.133ZM782.739 -237.257V440.133Z" fill="black"/>
<path d="M-185.228 -237.257V440.133M8.36534 -237.257V440.133M201.959 -237.257V440.133M395.552 -237.257V440.133M589.145 -237.257V440.133M782.739 -237.257V440.133" stroke="#DCE7FF"/>
</g>
</g>
</g>
</g>
<g clip-path="url(#clip1_18_241)">
<path d="M95.8726 285.064C95.8726 259.833 100.842 234.85 110.497 211.54C120.153 188.23 134.305 167.05 152.145 149.209C169.986 131.368 191.166 117.216 214.476 107.561C237.786 97.9057 262.77 92.9362 288 92.9362C313.231 92.9362 338.214 97.9057 361.524 107.561C384.834 117.216 406.014 131.368 423.855 149.209C441.696 167.05 455.848 188.23 465.503 211.54C475.158 234.85 480.128 259.833 480.128 285.064L403.277 285.064C403.277 269.925 400.295 254.935 394.502 240.949C388.709 226.963 380.218 214.255 369.513 203.551C358.809 192.847 346.101 184.355 332.115 178.562C318.129 172.769 303.139 169.787 288 169.787C272.862 169.787 257.872 172.769 243.886 178.562C229.9 184.355 217.192 192.847 206.487 203.551C195.783 214.255 187.292 226.963 181.499 240.949C175.705 254.935 172.724 269.925 172.724 285.064L95.8726 285.064Z" fill="#09093E"/>
<path d="M95.8726 285.064C95.8726 256.363 102.303 228.026 114.691 202.137C127.079 176.247 145.11 153.461 167.46 135.454C189.809 117.447 215.909 104.676 243.841 98.0797C271.774 91.4831 300.83 91.2284 328.874 97.3343L312.524 172.426C295.698 168.763 278.265 168.915 261.505 172.873C244.745 176.831 229.085 184.494 215.676 195.298C202.266 206.102 191.447 219.774 184.015 235.307C176.582 250.841 172.724 267.843 172.724 285.064L95.8726 285.064Z" fill="#7857FF"/>
<path d="M95.8726 285.064C95.8726 256.363 102.303 228.026 114.691 202.137C127.079 176.247 145.11 153.461 167.46 135.454C189.809 117.447 215.909 104.676 243.841 98.0797C271.774 91.4831 300.83 91.2284 328.874 97.3343L312.524 172.426C295.698 168.763 278.265 168.915 261.505 172.873C244.745 176.831 229.085 184.494 215.676 195.298C202.266 206.102 191.447 219.774 184.015 235.307C176.582 250.841 172.724 267.843 172.724 285.064L95.8726 285.064Z" fill="url(#paint3_linear_18_241)"/>
</g>
<foreignObject x="422.903" y="13.9028" width="248.065" height="127.194"><div xmlns="http://www.w3.org/1999/xhtml" style="backdrop-filter:blur(4.8px);clip-path:url(#bgblur_2_18_241_clip_path);height:100%;width:100%"></div></foreignObject><g data-figma-bg-blur-radius="9.60181">
<path d="M643.037 24H450.833C440.984 24 433 31.9843 433 41.8333V113.167C433 123.016 440.984 131 450.833 131H643.037C652.886 131 660.87 123.016 660.87 113.167V41.8333C660.87 31.9843 652.886 24 643.037 24Z" fill="#2B86F2" fill-opacity="0.43"/>
<path d="M643.037 24H450.833C440.984 24 433 31.9843 433 41.8333V113.167C433 123.016 440.984 131 450.833 131H643.037C652.886 131 660.87 123.016 660.87 113.167V41.8333C660.87 31.9843 652.886 24 643.037 24Z" fill="url(#paint4_linear_18_241)"/>
<path d="M643.037 24H450.833C440.984 24 433 31.9843 433 41.8333V113.167C433 123.016 440.984 131 450.833 131H643.037C652.886 131 660.87 123.016 660.87 113.167V41.8333C660.87 31.9843 652.886 24 643.037 24Z" stroke="#C8E9FF" stroke-opacity="0.62" stroke-width="0.990741"/>
</g>
<path d="M475.149 91.1V99.96C475.149 101.013 475.422 101.807 475.969 102.34C476.529 102.873 477.302 103.14 478.289 103.14C479.289 103.14 480.062 102.873 480.609 102.34C481.169 101.807 481.449 101.013 481.449 99.96V91.1H483.729V99.92C483.729 101.053 483.482 102.013 482.989 102.8C482.496 103.587 481.836 104.173 481.009 104.56C480.182 104.947 479.269 105.14 478.269 105.14C477.269 105.14 476.356 104.947 475.529 104.56C474.716 104.173 474.069 103.587 473.589 102.8C473.109 102.013 472.869 101.053 472.869 99.92V91.1H475.149ZM492.258 93.8C493.124 93.8 493.898 93.98 494.578 94.34C495.271 94.7 495.811 95.2333 496.198 95.94C496.584 96.6467 496.778 97.5 496.778 98.5V105H494.518V98.84C494.518 97.8533 494.271 97.1 493.778 96.58C493.284 96.0467 492.611 95.78 491.758 95.78C490.904 95.78 490.224 96.0467 489.718 96.58C489.224 97.1 488.978 97.8533 488.978 98.84V105H486.698V93.98H488.978V95.24C489.351 94.7867 489.824 94.4333 490.398 94.18C490.984 93.9267 491.604 93.8 492.258 93.8ZM498.926 99.44C498.926 98.3333 499.153 97.3533 499.606 96.5C500.073 95.6467 500.699 94.9867 501.486 94.52C502.286 94.04 503.173 93.8 504.146 93.8C504.866 93.8 505.573 93.96 506.266 94.28C506.973 94.5867 507.533 95 507.946 95.52V90.2H510.246V105H507.946V103.34C507.573 103.873 507.053 104.313 506.386 104.66C505.733 105.007 504.979 105.18 504.126 105.18C503.166 105.18 502.286 104.94 501.486 104.46C500.699 103.967 500.073 103.287 499.606 102.42C499.153 101.54 498.926 100.547 498.926 99.44ZM507.946 99.48C507.946 98.72 507.786 98.06 507.466 97.5C507.159 96.94 506.753 96.5133 506.246 96.22C505.739 95.9267 505.193 95.78 504.606 95.78C504.019 95.78 503.473 95.9267 502.966 96.22C502.459 96.5 502.046 96.92 501.726 97.48C501.419 98.0267 501.266 98.68 501.266 99.44C501.266 100.2 501.419 100.867 501.726 101.44C502.046 102.013 502.459 102.453 502.966 102.76C503.486 103.053 504.033 103.2 504.606 103.2C505.193 103.2 505.739 103.053 506.246 102.76C506.753 102.467 507.159 102.04 507.466 101.48C507.786 100.907 507.946 100.24 507.946 99.48ZM523.341 99.22C523.341 99.6333 523.314 100.007 523.261 100.34H514.841C514.907 101.22 515.234 101.927 515.821 102.46C516.407 102.993 517.127 103.26 517.981 103.26C519.207 103.26 520.074 102.747 520.581 101.72H523.041C522.707 102.733 522.101 103.567 521.221 104.22C520.354 104.86 519.274 105.18 517.981 105.18C516.927 105.18 515.981 104.947 515.141 104.48C514.314 104 513.661 103.333 513.181 102.48C512.714 101.613 512.481 100.613 512.481 99.48C512.481 98.3467 512.707 97.3533 513.161 96.5C513.627 95.6333 514.274 94.9667 515.101 94.5C515.941 94.0333 516.901 93.8 517.981 93.8C519.021 93.8 519.947 94.0267 520.761 94.48C521.574 94.9333 522.207 95.5733 522.661 96.4C523.114 97.2133 523.341 98.1533 523.341 99.22ZM520.961 98.5C520.947 97.66 520.647 96.9867 520.061 96.48C519.474 95.9733 518.747 95.72 517.881 95.72C517.094 95.72 516.421 95.9733 515.861 96.48C515.301 96.9733 514.967 97.6467 514.861 98.5H520.961ZM527.864 95.58C528.198 95.02 528.638 94.5867 529.184 94.28C529.744 93.96 530.404 93.8 531.164 93.8V96.16H530.584C529.691 96.16 529.011 96.3867 528.544 96.84C528.091 97.2933 527.864 98.08 527.864 99.2V105H525.584V93.98H527.864V95.58ZM535.54 95.6C535.927 95.0933 536.453 94.6667 537.12 94.32C537.787 93.9733 538.54 93.8 539.38 93.8C540.34 93.8 541.213 94.04 542 94.52C542.8 94.9867 543.427 95.6467 543.88 96.5C544.333 97.3533 544.56 98.3333 544.56 99.44C544.56 100.547 544.333 101.54 543.88 102.42C543.427 103.287 542.8 103.967 542 104.46C541.213 104.94 540.34 105.18 539.38 105.18C538.54 105.18 537.793 105.013 537.14 104.68C536.487 104.333 535.953 103.907 535.54 103.4V110.24H533.26V93.98H535.54V95.6ZM542.24 99.44C542.24 98.68 542.08 98.0267 541.76 97.48C541.453 96.92 541.04 96.5 540.52 96.22C540.013 95.9267 539.467 95.78 538.88 95.78C538.307 95.78 537.76 95.9267 537.24 96.22C536.733 96.5133 536.32 96.94 536 97.5C535.693 98.06 535.54 98.72 535.54 99.48C535.54 100.24 535.693 100.907 536 101.48C536.32 102.04 536.733 102.467 537.24 102.76C537.76 103.053 538.307 103.2 538.88 103.2C539.467 103.2 540.013 103.053 540.52 102.76C541.04 102.453 541.453 102.013 541.76 101.44C542.08 100.867 542.24 100.2 542.24 99.44ZM556.915 99.22C556.915 99.6333 556.888 100.007 556.835 100.34H548.415C548.481 101.22 548.808 101.927 549.395 102.46C549.981 102.993 550.701 103.26 551.555 103.26C552.781 103.26 553.648 102.747 554.155 101.72H556.615C556.281 102.733 555.675 103.567 554.795 104.22C553.928 104.86 552.848 105.18 551.555 105.18C550.501 105.18 549.555 104.947 548.715 104.48C547.888 104 547.235 103.333 546.755 102.48C546.288 101.613 546.055 100.613 546.055 99.48C546.055 98.3467 546.281 97.3533 546.735 96.5C547.201 95.6333 547.848 94.9667 548.675 94.5C549.515 94.0333 550.475 93.8 551.555 93.8C552.595 93.8 553.521 94.0267 554.335 94.48C555.148 94.9333 555.781 95.5733 556.235 96.4C556.688 97.2133 556.915 98.1533 556.915 99.22ZM554.535 98.5C554.521 97.66 554.221 96.9867 553.635 96.48C553.048 95.9733 552.321 95.72 551.455 95.72C550.668 95.72 549.995 95.9733 549.435 96.48C548.875 96.9733 548.541 97.6467 548.435 98.5H554.535ZM561.439 95.58C561.772 95.02 562.212 94.5867 562.759 94.28C563.319 93.96 563.979 93.8 564.739 93.8V96.16H564.159C563.265 96.16 562.585 96.3867 562.119 96.84C561.665 97.2933 561.439 98.08 561.439 99.2V105H559.159V93.98H561.439V95.58ZM571.454 95.84H569.414V105H567.114V95.84H565.814V93.98H567.114V93.2C567.114 91.9333 567.448 91.0133 568.114 90.44C568.794 89.8533 569.854 89.56 571.294 89.56V91.46C570.601 91.46 570.114 91.5933 569.834 91.86C569.554 92.1133 569.414 92.56 569.414 93.2V93.98H571.454V95.84ZM578.255 105.18C577.215 105.18 576.275 104.947 575.435 104.48C574.595 104 573.935 103.333 573.455 102.48C572.975 101.613 572.735 100.613 572.735 99.48C572.735 98.36 572.982 97.3667 573.475 96.5C573.968 95.6333 574.642 94.9667 575.495 94.5C576.348 94.0333 577.302 93.8 578.355 93.8C579.408 93.8 580.362 94.0333 581.215 94.5C582.068 94.9667 582.742 95.6333 583.235 96.5C583.728 97.3667 583.975 98.36 583.975 99.48C583.975 100.6 583.722 101.593 583.215 102.46C582.708 103.327 582.015 104 581.135 104.48C580.268 104.947 579.308 105.18 578.255 105.18ZM578.255 103.2C578.842 103.2 579.388 103.06 579.895 102.78C580.415 102.5 580.835 102.08 581.155 101.52C581.475 100.96 581.635 100.28 581.635 99.48C581.635 98.68 581.482 98.0067 581.175 97.46C580.868 96.9 580.462 96.48 579.955 96.2C579.448 95.92 578.902 95.78 578.315 95.78C577.728 95.78 577.182 95.92 576.675 96.2C576.182 96.48 575.788 96.9 575.495 97.46C575.202 98.0067 575.055 98.68 575.055 99.48C575.055 100.667 575.355 101.587 575.955 102.24C576.568 102.88 577.335 103.2 578.255 103.2ZM588.509 95.58C588.842 95.02 589.282 94.5867 589.829 94.28C590.389 93.96 591.049 93.8 591.809 93.8V96.16H591.229C590.335 96.16 589.655 96.3867 589.189 96.84C588.735 97.2933 588.509 98.08 588.509 99.2V105H586.229V93.98H588.509V95.58ZM607.245 93.8C608.111 93.8 608.885 93.98 609.565 94.34C610.258 94.7 610.798 95.2333 611.185 95.94C611.585 96.6467 611.785 97.5 611.785 98.5V105H609.525V98.84C609.525 97.8533 609.278 97.1 608.785 96.58C608.291 96.0467 607.618 95.78 606.765 95.78C605.911 95.78 605.231 96.0467 604.725 96.58C604.231 97.1 603.985 97.8533 603.985 98.84V105H601.725V98.84C601.725 97.8533 601.478 97.1 600.985 96.58C600.491 96.0467 599.818 95.78 598.965 95.78C598.111 95.78 597.431 96.0467 596.925 96.58C596.431 97.1 596.185 97.8533 596.185 98.84V105H593.905V93.98H596.185V95.24C596.558 94.7867 597.031 94.4333 597.605 94.18C598.178 93.9267 598.791 93.8 599.445 93.8C600.325 93.8 601.111 93.9867 601.805 94.36C602.498 94.7333 603.031 95.2733 603.405 95.98C603.738 95.3133 604.258 94.7867 604.965 94.4C605.671 94 606.431 93.8 607.245 93.8ZM618.686 105.18C617.819 105.18 617.039 105.027 616.346 104.72C615.666 104.4 615.126 103.973 614.726 103.44C614.326 102.893 614.113 102.287 614.086 101.62H616.446C616.486 102.087 616.706 102.48 617.106 102.8C617.519 103.107 618.033 103.26 618.646 103.26C619.286 103.26 619.779 103.14 620.126 102.9C620.486 102.647 620.666 102.327 620.666 101.94C620.666 101.527 620.466 101.22 620.066 101.02C619.679 100.82 619.059 100.6 618.206 100.36C617.379 100.133 616.706 99.9133 616.186 99.7C615.666 99.4867 615.213 99.16 614.826 98.72C614.453 98.28 614.266 97.7 614.266 96.98C614.266 96.3933 614.439 95.86 614.786 95.38C615.133 94.8867 615.626 94.5 616.266 94.22C616.919 93.94 617.666 93.8 618.506 93.8C619.759 93.8 620.766 94.12 621.526 94.76C622.299 95.3867 622.713 96.2467 622.766 97.34H620.486C620.446 96.8467 620.246 96.4533 619.886 96.16C619.526 95.8667 619.039 95.72 618.426 95.72C617.826 95.72 617.366 95.8333 617.046 96.06C616.726 96.2867 616.566 96.5867 616.566 96.96C616.566 97.2533 616.673 97.5 616.886 97.7C617.099 97.9 617.359 98.06 617.666 98.18C617.973 98.2867 618.426 98.4267 619.026 98.6C619.826 98.8133 620.479 99.0333 620.986 99.26C621.506 99.4733 621.953 99.7933 622.326 100.22C622.699 100.647 622.893 101.213 622.906 101.92C622.906 102.547 622.733 103.107 622.386 103.6C622.039 104.093 621.546 104.48 620.906 104.76C620.279 105.04 619.539 105.18 618.686 105.18Z" fill="#F4F8FA"/>
<path d="M490.663 75.9511V68.4685L507.797 43.9602H518.154V67.9263H522.6V75.9511H518.154V83H508.882V75.9511H490.663ZM509.532 54.1539L500.423 67.9263H509.532V54.1539ZM527.141 62.6668C527.141 56.4493 528.334 51.5513 530.72 47.9726C533.142 44.3939 537.028 42.6046 542.378 42.6046C547.728 42.6046 551.595 44.3939 553.981 47.9726C556.403 51.5513 557.614 56.4493 557.614 62.6668C557.614 68.9565 556.403 73.8907 553.981 77.4694C551.595 81.048 547.728 82.8373 542.378 82.8373C537.028 82.8373 533.142 81.048 530.72 77.4694C528.334 73.8907 527.141 68.9565 527.141 62.6668ZM548.505 62.6668C548.505 59.0158 548.107 56.2143 547.312 54.2624C546.517 52.2742 544.872 51.2801 542.378 51.2801C539.884 51.2801 538.239 52.2742 537.444 54.2624C536.648 56.2143 536.251 59.0158 536.251 62.6668C536.251 65.1248 536.395 67.1672 536.684 68.7938C536.974 70.3844 537.552 71.6857 538.42 72.6978C539.323 73.6738 540.643 74.1618 542.378 74.1618C544.113 74.1618 545.414 73.6738 546.282 72.6978C547.185 71.6857 547.782 70.3844 548.071 68.7938C548.36 67.1672 548.505 65.1248 548.505 62.6668ZM561.754 53.3948C561.754 50.4668 562.585 48.2076 564.248 46.6171C565.947 45.0265 568.134 44.2313 570.809 44.2313C573.484 44.2313 575.653 45.0265 577.315 46.6171C578.978 48.2076 579.81 50.4668 579.81 53.3948C579.81 56.3228 578.978 58.582 577.315 60.1725C575.653 61.7631 573.484 62.5583 570.809 62.5583C568.134 62.5583 565.947 61.7631 564.248 60.1725C562.585 58.582 561.754 56.3228 561.754 53.3948ZM598.57 44.8277L577.695 83H568.748L589.624 44.8277H598.57ZM570.754 49.6535C569.019 49.6535 568.152 50.9006 568.152 53.3948C568.152 55.8529 569.019 57.0819 570.754 57.0819C571.586 57.0819 572.237 56.7746 572.706 56.1601C573.176 55.5456 573.411 54.6238 573.411 53.3948C573.411 50.9006 572.526 49.6535 570.754 49.6535ZM587.563 74.4329C587.563 71.5049 588.395 69.2457 590.058 67.6552C591.72 66.0647 593.889 65.2694 596.564 65.2694C599.239 65.2694 601.408 66.0647 603.071 67.6552C604.734 69.2457 605.565 71.5049 605.565 74.4329C605.565 77.3609 604.734 79.6202 603.071 81.2107C601.408 82.8012 599.239 83.5964 596.564 83.5964C593.889 83.5964 591.72 82.8012 590.058 81.2107C588.395 79.6202 587.563 77.3609 587.563 74.4329ZM596.51 70.6916C595.679 70.6916 595.028 70.9989 594.558 71.6134C594.124 72.2279 593.907 73.1677 593.907 74.4329C593.907 76.891 594.775 78.12 596.51 78.12C597.341 78.12 597.992 77.8128 598.462 77.1982C598.932 76.5837 599.167 75.662 599.167 74.4329C599.167 73.2039 598.932 72.2821 598.462 71.6676C597.992 71.0169 597.341 70.6916 596.51 70.6916Z" fill="#F4F8FA"/>
<defs>
<filter id="filter0_ii_18_241" x="0" y="0" width="576.9" height="378.9" filterUnits="userSpaceOnUse" color-interpolation-filters="sRGB">
<feFlood flood-opacity="0" result="BackgroundImageFix"/>
<feBlend mode="normal" in="SourceGraphic" in2="BackgroundImageFix" result="shape"/>
<feColorMatrix in="SourceAlpha" type="matrix" values="0 0 0 0 0 0 0 0 0 0 0 0 0 0 0 0 0 0 127 0" result="hardAlpha"/>
<feOffset dx="0.9" dy="0.9"/>
<feGaussianBlur stdDeviation="2.43894"/>
<feComposite in2="hardAlpha" operator="arithmetic" k2="-1" k3="1"/>
<feColorMatrix type="matrix" values="0 0 0 0 0.403922 0 0 0 0 0.890196 0 0 0 0 0.921569 0 0 0 1 0"/>
<feBlend mode="normal" in2="shape" result="effect1_innerShadow_18_241"/>
<feColorMatrix in="SourceAlpha" type="matrix" values="0 0 0 0 0 0 0 0 0 0 0 0 0 0 0 0 0 0 127 0" result="hardAlpha"/>
<feMorphology radius="1.21947" operator="dilate" in="SourceAlpha" result="effect2_innerShadow_18_241"/>
<feOffset dx="0.9" dy="0.9"/>
<feGaussianBlur stdDeviation="5.36567"/>
<feComposite in2="hardAlpha" operator="arithmetic" k2="-1" k3="1"/>
<feColorMatrix type="matrix" values="0 0 0 0 0.403922 0 0 0 0 0.890196 0 0 0 0 0.921569 0 0 0 1 0"/>
<feBlend mode="normal" in2="effect1_innerShadow_18_241" result="effect2_innerShadow_18_241"/>
</filter>
<clipPath id="bgblur_2_18_241_clip_path" transform="translate(-422.903 -13.9028)"><path d="M643.037 24H450.833C440.984 24 433 31.9843 433 41.8333V113.167C433 123.016 440.984 131 450.833 131H643.037C652.886 131 660.87 123.016 660.87 113.167V41.8333C660.87 31.9843 652.886 24 643.037 24Z"/>
</clipPath><linearGradient id="paint0_linear_18_241" x1="0" y1="0" x2="346.78" y2="528.426" gradientUnits="userSpaceOnUse">
<stop stop-color="#3B58BC"/>
<stop offset="0.402967" stop-color="#09093E"/>
<stop offset="1" stop-color="#242BA9"/>
</linearGradient>
<linearGradient id="paint1_linear_18_241" x1="9.11999" y1="10.3883" x2="518.265" y2="296.91" gradientUnits="userSpaceOnUse">
<stop stop-color="#00F2FF"/>
<stop offset="0.516921" stop-color="#5FF7FF" stop-opacity="0"/>
</linearGradient>
<radialGradient id="paint2_radial_18_241" cx="0" cy="0" r="1" gradientUnits="userSpaceOnUse" gradientTransform="translate(527.004 -11.5711) scale(774.373 489.566)">
<stop stop-color="#5BD5FF" stop-opacity="0.68"/>
<stop offset="0.34" stop-color="#147DFF" stop-opacity="0.32"/>
<stop offset="1" stop-color="#07083B" stop-opacity="0"/>
</radialGradient>
<linearGradient id="paint3_linear_18_241" x1="305.127" y1="92.783" x2="76.5769" y2="342.237" gradientUnits="userSpaceOnUse">
<stop stop-color="#1EFAD2"/>
<stop offset="0.624877" stop-color="#66B6DC"/>
<stop offset="1" stop-color="#ACDEDD"/>
</linearGradient>
<linearGradient id="paint4_linear_18_241" x1="433" y1="24" x2="515.333" y2="199.339" gradientUnits="userSpaceOnUse">
<stop stop-color="white" stop-opacity="0.34"/>
<stop offset="0.52" stop-color="#8CF7FF" stop-opacity="0.14"/>
<stop offset="1" stop-color="#2231A0" stop-opacity="0.24"/>
</linearGradient>
<clipPath id="clip0_18_241">
<rect width="576" height="378" rx="42" fill="white"/>
</clipPath>
<clipPath id="clip1_18_241">
<rect width="384.255" height="192.128" fill="white" transform="translate(96 93)"/>
</clipPath>
</defs>
</svg>
