<svg preserveAspectRatio="none" width="100%" height="100%" overflow="visible" style="display: block;" viewBox="0 0 99.5952 11.1532" fill="none" xmlns="http://www.w3.org/2000/svg">
<g id="Group">
<path id="Vector" d="M5.41218 6.59911H2.21853L1.68844 8.12475H1.35034e-07L2.88606 0.101274H4.76101L7.64707 8.12475H5.94554L5.41545 6.59911H5.41218ZM4.97698 5.31196L3.81536 1.96013L2.65373 5.31196H4.97698Z" fill="var(--fill-0, white)"/>
<path id="Vector_2" d="M14.0933 2.39136C14.5612 2.86833 14.7935 3.53803 14.7935 4.39396V8.12474H13.1836V4.61284C13.1836 4.10648 13.056 3.72098 12.804 3.44656C12.5521 3.17215 12.2052 3.0382 11.77 3.0382C11.3348 3.0382 10.9749 3.17541 10.7197 3.44656C10.4612 3.71771 10.3335 4.10648 10.3335 4.61284V8.12474H8.72363V1.76739H10.3335V2.55797C10.5495 2.28355 10.8211 2.06794 11.1549 1.90786C11.4886 1.75105 11.8551 1.67265 12.251 1.67265C13.0102 1.67265 13.6221 1.91113 14.09 2.39136H14.0933Z" fill="var(--fill-0, white)"/>
<path id="Vector_3" d="M20.3169 7.91893C19.8686 7.72618 19.5153 7.45177 19.2535 7.09241C18.9917 6.73305 18.8575 6.30835 18.851 5.81832H20.5754C20.5983 6.14828 20.7161 6.40636 20.9256 6.59911C21.135 6.79185 21.4262 6.88659 21.7927 6.88659C22.1592 6.88659 22.4635 6.79839 22.6762 6.61871C22.8889 6.43903 22.9968 6.20382 22.9968 5.91306C22.9968 5.67458 22.9249 5.48183 22.7776 5.32829C22.6336 5.17474 22.4504 5.05387 22.2312 4.96566C22.0119 4.87746 21.7109 4.77945 21.328 4.67165C20.8078 4.5181 20.3824 4.36783 20.0584 4.21755C19.7312 4.06727 19.4531 3.84185 19.2208 3.5413C18.9852 3.23748 18.8706 2.83566 18.8706 2.32929C18.8706 1.85559 18.9884 1.44069 19.2273 1.09114C19.4662 0.738315 19.7967 0.470432 20.2286 0.280952C20.6572 0.0947398 21.1481 0 21.7011 0C22.5289 0 23.1997 0.199279 23.72 0.601106C24.2403 1.00293 24.5217 1.56484 24.5773 2.28355H22.8071C22.7907 2.00914 22.6762 1.78045 22.4569 1.60078C22.2377 1.4211 21.9498 1.32962 21.5898 1.32962C21.2757 1.32962 21.0237 1.41129 20.8372 1.57137C20.6507 1.73145 20.5558 1.96666 20.5558 2.27048C20.5558 2.4861 20.6278 2.66251 20.7685 2.80299C20.9092 2.94346 21.0859 3.06107 21.2986 3.14601C21.5113 3.23095 21.8058 3.33549 22.1886 3.44983C22.7089 3.60337 23.1343 3.75692 23.4648 3.91046C23.7953 4.064 24.0767 4.29269 24.3155 4.59977C24.5544 4.90686 24.6722 5.30869 24.6722 5.80525C24.6722 6.23322 24.5609 6.63177 24.3384 6.99767C24.1159 7.36356 23.7887 7.65758 23.3601 7.87646C22.9314 8.09534 22.4209 8.20315 21.832 8.20315C21.2724 8.20315 20.7685 8.10841 20.3202 7.91566L20.3169 7.91893Z" fill="var(--fill-0, white)"/>
<path id="Vector_4" d="M30.9777 6.59911H27.7808L27.2507 8.12475H25.5622L28.4483 0.101274H30.3233L33.2093 8.12475H31.5078L30.9777 6.59911ZM30.5425 5.31196L29.3809 1.96013L28.2192 5.31196H30.5425Z" fill="var(--fill-0, white)"/>
<path id="Vector_5" d="M39.8355 3.7994C39.6326 4.17509 39.3152 4.47564 38.88 4.70759C38.4481 4.93627 37.9016 5.05061 37.2406 5.05061H35.8958V8.12802H34.2859V0.117617H37.2406C37.8623 0.117617 38.3892 0.225423 38.8276 0.437771C39.2628 0.653385 39.5933 0.947407 39.8093 1.3231C40.0285 1.69879 40.1365 2.12348 40.1365 2.59718C40.1365 3.02514 40.0351 3.42697 39.8322 3.80266L39.8355 3.7994ZM38.1634 3.44657C38.3793 3.24403 38.4841 2.95981 38.4841 2.59065C38.4841 1.80987 38.0489 1.42111 37.1752 1.42111H35.899V3.7504H37.1752C37.6202 3.7504 37.9507 3.64912 38.1634 3.44657Z" fill="var(--fill-0, white)"/>
<path id="Vector_6" d="M44.0042 3.2179C44.2725 2.7246 44.6456 2.34237 45.12 2.07122C45.5945 1.80006 46.1377 1.66286 46.7528 1.66286C47.5414 1.66286 48.1959 1.85887 48.7129 2.25417C49.2299 2.64946 49.5767 3.20156 49.7534 3.91374H48.0159C47.9243 3.63932 47.7705 3.42371 47.5513 3.26363C47.332 3.10682 47.0637 3.02842 46.7398 3.02842C46.2816 3.02842 45.9152 3.19503 45.6468 3.52825C45.3785 3.86147 45.2444 4.3319 45.2444 4.94607C45.2444 5.56025 45.3785 6.01761 45.6468 6.35084C45.9152 6.68406 46.2784 6.85067 46.7398 6.85067C47.3909 6.85067 47.8163 6.55992 48.0159 5.97841H49.7534C49.5767 6.66772 49.2266 7.2133 48.7063 7.61839C48.1861 8.02348 47.5349 8.22603 46.7528 8.22603C46.1409 8.22603 45.5945 8.08882 45.12 7.81767C44.6456 7.54652 44.2725 7.16429 44.0042 6.67099C43.7359 6.17769 43.6017 5.60272 43.6017 4.94281C43.6017 4.2829 43.7359 3.70792 44.0042 3.21463V3.2179Z" fill="var(--fill-0, white)"/>
<path id="Vector_7" d="M52.1061 7.82093C51.6153 7.54978 51.2292 7.16429 50.951 6.66772C50.6696 6.17116 50.5322 5.59619 50.5322 4.94608C50.5322 4.29597 50.6762 3.721 50.9641 3.22443C51.2521 2.72786 51.6447 2.34237 52.1421 2.07122C52.6395 1.80006 53.1957 1.66286 53.8076 1.66286C54.4195 1.66286 54.9758 1.80006 55.4732 2.07122C55.9705 2.34237 56.3632 2.72786 56.6512 3.22443C56.9391 3.721 57.0831 4.29597 57.0831 4.94608C57.0831 5.59619 56.9358 6.17116 56.6413 6.66772C56.3468 7.16429 55.9476 7.54978 55.447 7.82093C54.9463 8.09209 54.3835 8.2293 53.7618 8.2293C53.1401 8.2293 52.5969 8.09209 52.1061 7.82093ZM54.5864 6.61545C54.8416 6.47498 55.0478 6.26263 55.2016 5.97841C55.3554 5.69419 55.4306 5.35117 55.4306 4.94608C55.4306 4.3417 55.2703 3.87781 54.9529 3.55112C54.6355 3.22443 54.2461 3.06435 53.788 3.06435C53.3299 3.06435 52.9438 3.2277 52.6329 3.55112C52.3221 3.87454 52.1683 4.3417 52.1683 4.94608C52.1683 5.55045 52.3188 6.01435 52.6231 6.34104C52.9274 6.66772 53.307 6.8278 53.7651 6.8278C54.0563 6.8278 54.3312 6.75593 54.5864 6.61545Z" fill="var(--fill-0, white)"/>
<path id="Vector_8" d="M68.0678 2.39136C68.5455 2.86833 68.7877 3.53804 68.7877 4.39396V8.12475H67.1778V4.61285C67.1778 4.11628 67.0501 3.73406 66.7982 3.46944C66.5462 3.20482 66.1994 3.07414 65.7642 3.07414C65.329 3.07414 64.9821 3.20482 64.7236 3.46944C64.4651 3.73406 64.3375 4.11301 64.3375 4.61285V8.12475H62.7276V4.61285C62.7276 4.11628 62.6 3.73406 62.348 3.46944C62.0961 3.20482 61.7492 3.07414 61.314 3.07414C60.8788 3.07414 60.5189 3.20482 60.2637 3.46944C60.0051 3.73406 59.8775 4.11301 59.8775 4.61285V8.12475H58.2676V1.76739H59.8775V2.53511C60.0837 2.26722 60.352 2.05814 60.6759 1.9046C61.0032 1.75105 61.3598 1.67592 61.7492 1.67592C62.2466 1.67592 62.6916 1.78046 63.081 1.9928C63.4704 2.20515 63.7747 2.50244 63.9907 2.89446C64.1968 2.52857 64.4978 2.23129 64.8938 2.00914C65.2897 1.78699 65.7151 1.67592 66.1765 1.67592C66.9585 1.67592 67.5901 1.9144 68.0678 2.39463V2.39136Z" fill="var(--fill-0, white)"/>
<path id="Vector_9" d="M72.783 1.95688C73.1462 1.76086 73.5618 1.66286 74.0297 1.66286C74.5729 1.66286 75.067 1.7968 75.5054 2.06469C75.9439 2.33257 76.294 2.71153 76.5525 3.20482C76.8078 3.69812 76.9386 4.26983 76.9386 4.91994C76.9386 5.57005 76.811 6.14502 76.5525 6.64812C76.294 7.14796 75.9472 7.53671 75.5054 7.8144C75.0637 8.09208 74.5729 8.22603 74.0297 8.22603C73.5618 8.22603 73.1495 8.13129 72.7928 7.93854C72.4361 7.74906 72.1482 7.50731 71.9257 7.21656V11.1532H70.3158V1.76413H71.9257V2.68213C72.1318 2.39137 72.4165 2.14963 72.783 1.95361V1.95688ZM75.0571 3.93007C74.9001 3.64912 74.6939 3.44004 74.4354 3.29303C74.1802 3.14929 73.9021 3.07415 73.601 3.07415C73.3 3.07415 73.0349 3.14929 72.7797 3.2963C72.5212 3.44657 72.3151 3.66219 72.158 3.94641C72.0009 4.23063 71.9224 4.56385 71.9224 4.94607C71.9224 5.3283 72.0009 5.66152 72.158 5.94574C72.3151 6.22996 72.5212 6.44558 72.7797 6.59585C73.0349 6.74613 73.3098 6.818 73.601 6.818C73.8923 6.818 74.1769 6.74286 74.4354 6.58932C74.6939 6.43577 74.9001 6.21689 75.0571 5.93594C75.2142 5.65172 75.2927 5.31523 75.2927 4.92647C75.2927 4.53772 75.2142 4.2143 75.0571 3.93334V3.93007Z" fill="var(--fill-0, white)"/>
<path id="Vector_10" d="M78.0807 3.21136C78.3359 2.71479 78.686 2.33257 79.1277 2.06469C79.5695 1.7968 80.0603 1.66286 80.6035 1.66286C81.078 1.66286 81.4935 1.7576 81.8502 1.95034C82.2069 2.14309 82.4915 2.38157 82.7075 2.67233V1.76413H84.3272V8.12149H82.7075V7.19043C82.5014 7.48771 82.2167 7.73599 81.8502 7.93201C81.487 8.12802 81.0681 8.22603 80.5904 8.22603C80.0538 8.22603 79.5662 8.08882 79.1245 7.8144C78.6827 7.53998 78.3359 7.15122 78.0774 6.64812C77.8189 6.14829 77.6913 5.57005 77.6913 4.91994C77.6913 4.26983 77.8189 3.70793 78.0774 3.20809L78.0807 3.21136ZM82.4784 3.94314C82.3247 3.66219 82.1185 3.44984 81.8567 3.29957C81.595 3.14929 81.3168 3.07742 81.0158 3.07742C80.7148 3.07742 80.4399 3.14929 80.1879 3.2963C79.936 3.44331 79.7298 3.65566 79.5728 3.93334C79.4157 4.2143 79.3372 4.54425 79.3372 4.92647C79.3372 5.3087 79.4157 5.64519 79.5728 5.92941C79.7298 6.2169 79.936 6.43577 80.1945 6.58932C80.4497 6.74286 80.7246 6.818 81.0158 6.818C81.307 6.818 81.595 6.74286 81.8567 6.59585C82.1185 6.44558 82.3247 6.23323 82.4784 5.95228C82.6322 5.67132 82.7075 5.3381 82.7075 4.94934C82.7075 4.56059 82.6322 4.22409 82.4784 3.94641V3.94314Z" fill="var(--fill-0, white)"/>
<path id="Vector_11" d="M91.274 2.39136C91.742 2.86833 91.9743 3.53803 91.9743 4.39396V8.12474H90.3644V4.61284C90.3644 4.10648 90.2368 3.72098 89.9848 3.44656C89.7328 3.17541 89.386 3.0382 88.9508 3.0382C88.5156 3.0382 88.1556 3.17541 87.9004 3.44656C87.6419 3.71771 87.5143 4.10648 87.5143 4.61284V8.12474H85.9044V1.76739H87.5143V2.55797C87.7303 2.28355 88.0019 2.06794 88.3356 1.90786C88.6694 1.75105 89.0359 1.67265 89.4351 1.67265C90.1942 1.67265 90.8061 1.91113 91.274 2.39136Z" fill="var(--fill-0, white)"/>
<path id="Vector_12" d="M99.5952 1.7674L95.6522 11.1336H93.9376L95.3184 7.96468L92.7661 1.7674H94.5724L96.215 6.21036L97.8805 1.7674H99.5919H99.5952Z" fill="var(--fill-0, white)"/>
</g>
</svg>
