<svg preserveAspectRatio="none" width="100%" height="100%" overflow="visible" style="display: block;" viewBox="0 0 196 64.8738" fill="none" xmlns="http://www.w3.org/2000/svg">
<g id="Group">
<g id="Group_2">
<path id="Vector" d="M38.5789 14.9362V30.7969C38.5789 34.5277 37.5973 37.4744 35.6373 39.6371C33.6772 41.7998 31.0431 42.8811 27.735 42.8811C26.0171 42.8811 24.4366 42.5218 23.0001 41.8031C21.5604 41.0843 20.33 40.0357 19.3026 38.657C18.1998 40.0553 16.94 41.1105 15.5199 41.8161C14.0998 42.525 12.5488 42.8779 10.8702 42.8779C7.56527 42.8779 4.92462 41.79 2.95477 39.6208C0.984925 37.4483 0 34.5048 0 30.7937V14.9329H4.90172V31.6626C4.90172 33.6032 5.44817 35.1647 6.54108 36.3474C7.63398 37.5332 9.07701 38.1245 10.8702 38.1245C12.6633 38.1245 14.0933 37.5267 15.2123 36.3343C16.3347 35.1419 16.8942 33.5836 16.8942 31.6626V14.9329H21.7698V31.6626C21.7698 33.6032 22.3162 35.1647 23.4091 36.3474C24.502 37.5332 25.9451 38.1245 27.7382 38.1245C29.5314 38.1245 30.9286 37.5267 32.0379 36.3343C33.1504 35.1419 33.7034 33.5836 33.7034 31.6626V14.9329H38.5789V14.9362Z" fill="var(--fill-0, white)"/>
<path id="Vector_2" d="M62.5378 42.378V28.6996C62.5378 25.828 61.7263 23.502 60.1 21.7215C58.4738 19.9411 56.3632 19.0492 53.7684 19.0492C51.1735 19.0492 49.0761 19.9313 47.4204 21.6921C45.7679 23.453 44.9401 25.7267 44.9401 28.5036C44.9401 31.2804 45.7908 33.662 47.4891 35.4686C49.1873 37.2784 51.3568 38.1833 53.9909 38.1833C55.1852 38.1833 56.3501 37.9775 57.479 37.5692C58.6079 37.1575 59.7434 36.5238 60.8821 35.6678V40.9537C59.7597 41.5874 58.5785 42.0579 57.3383 42.3649C56.0949 42.672 54.7926 42.8256 53.4281 42.8256C52.0636 42.8256 50.8234 42.6263 49.5342 42.2245C48.2449 41.8226 47.0768 41.2607 46.033 40.5322C44.0533 39.1699 42.5383 37.4679 41.4945 35.4261C40.4474 33.3843 39.9238 31.1138 39.9238 28.6146C39.9238 24.5114 41.2229 21.1237 43.8177 18.4481C46.4125 15.7725 49.7109 14.4331 53.7095 14.4331C56.3436 14.4331 58.7519 15.0963 60.9377 16.4194C63.1235 17.7424 64.8054 19.5621 65.9801 21.8751C66.5233 22.9205 66.9094 24.0606 67.1418 25.302C67.3741 26.5434 67.4919 28.3925 67.4919 30.8557V42.3813H62.5313L62.5378 42.378Z" fill="var(--fill-0, white)"/>
<path id="Vector_3" d="M75.2895 2.31948H70.3583V42.378H75.2895V2.31948Z" fill="var(--fill-0, white)"/>
<path id="Vector_4" d="M78.6271 42.378V2.31948H83.5583V24.8937H85.7441C87.1446 24.8937 88.2898 24.6062 89.1766 24.0279C90.0634 23.4497 91.0221 22.3128 92.0496 20.614L95.5508 14.9362H101.293L97.2589 21.4536C96.5488 22.6297 95.8486 23.5967 95.1581 24.3644C94.4677 25.1289 93.8133 25.6712 93.1981 25.9881C95.4592 26.416 97.1247 27.3438 98.198 28.7714C99.2712 30.1991 99.8079 32.218 99.8079 34.8283V42.3813H94.8473V35.4424C94.8473 33.466 94.4121 32.0155 93.5449 31.0942C92.6746 30.1697 91.3002 29.709 89.4122 29.709H83.555V42.3813H78.6238L78.6271 42.378Z" fill="var(--fill-0, white)"/>
</g>
<path id="Vector_5" fill-rule="evenodd" clip-rule="evenodd" d="M177.254 0H121.591C111.238 0 102.844 8.37956 102.844 18.716V36.7688C102.844 47.1052 111.238 55.4848 121.591 55.4848H136.011L149.214 64.8738L162.421 55.4848H177.254C187.607 55.4848 196 47.1052 196 36.7688V18.716C196 8.37956 187.607 0 177.254 0Z" fill="var(--fill-0, #0072F5)"/>
<g id="Group_3">
<path id="Vector_6" d="M115.616 41.7737V25.9129C115.616 22.1821 116.597 19.2354 118.557 17.0727C120.517 14.9101 123.161 13.8287 126.486 13.8287C128.184 13.8287 129.755 14.1881 131.195 14.9068C132.631 15.6255 133.874 16.6742 134.922 18.0528C136.005 16.6546 137.255 15.5994 138.675 14.8905C140.095 14.1815 141.652 13.8287 143.354 13.8287C146.643 13.8287 149.27 14.9166 151.243 17.0891C153.213 19.2616 154.198 22.205 154.198 25.9129V41.7737H149.322V24.9884C149.322 23.0675 148.773 21.519 147.67 20.3462C146.567 19.1701 145.131 18.5853 143.354 18.5853C141.577 18.5853 140.141 19.1733 139.038 20.3462C137.935 21.5222 137.386 23.0707 137.386 24.9884V41.7737H132.51V24.9884C132.51 23.0675 131.95 21.519 130.828 20.3462C129.706 19.1701 128.259 18.5853 126.486 18.5853C124.712 18.5853 123.25 19.1733 122.157 20.3462C121.064 21.5222 120.517 23.0707 120.517 24.9884V41.7737H115.616Z" fill="var(--fill-0, white)"/>
<path id="Vector_7" d="M183.229 29.6306C182.538 33.5476 180.948 36.6414 178.464 38.9184C175.981 41.1954 172.954 42.3323 169.384 42.3323C168.17 42.3323 166.969 42.1689 165.785 41.8423C164.6 41.5156 163.481 41.0353 162.437 40.4016C160.232 39.0589 158.524 37.3046 157.31 35.1419C156.096 32.9792 155.487 30.6009 155.487 28.007C155.487 26.1057 155.837 24.2958 156.538 22.5807C157.238 20.8656 158.252 19.3171 159.577 17.9385C160.903 16.5762 162.411 15.5438 164.103 14.8349C165.795 14.126 167.571 13.7732 169.44 13.7732C172.221 13.7732 174.711 14.505 176.907 15.9685C179.099 17.4321 180.879 19.5621 182.244 22.3618L164.227 32.3193L162.153 28.5983L175.516 21.1563C174.695 20.2416 173.769 19.5523 172.741 19.0851C171.714 18.618 170.595 18.386 169.378 18.386C166.914 18.386 164.836 19.304 163.144 21.14C161.452 22.976 160.608 25.2465 160.608 27.9515C160.608 30.6564 161.459 32.9041 163.157 34.7499C164.859 36.5956 166.93 37.5202 169.378 37.5202C171.825 37.5202 173.671 36.7525 175.248 35.2137C176.825 33.675 177.81 31.5646 178.203 28.8793L183.219 29.6339L183.229 29.6306Z" fill="var(--fill-0, white)"/>
</g>
</g>
</svg>
