<svg width="661" height="425" viewBox="0 0 661 425" fill="none" xmlns="http://www.w3.org/2000/svg">
<g opacity="0.85" filter="url(#filter0_f_1_99)">
<path d="M411.501 92.6688C317.889 92.6688 242.001 153.334 242.001 228.169C242.001 303.003 317.889 363.669 411.501 363.669C505.113 363.669 581.001 303.003 581.001 228.169C581.001 153.334 505.113 92.6688 411.501 92.6688Z" fill="url(#paint0_linear_1_99)"/>
</g>
<mask id="mask0_1_99" style="mask-type:luminance" maskUnits="userSpaceOnUse" x="216" y="20" width="349" height="350">
<path d="M390.5 20.6688C294.126 20.6688 216 98.7951 216 195.169C216 291.542 294.126 369.669 390.5 369.669C486.874 369.669 565 291.543 565 195.169C565 98.7951 486.874 20.6688 390.5 20.6688Z" fill="white"/>
</mask>
<g mask="url(#mask0_1_99)">
<g opacity="0.85" filter="url(#filter1_f_1_99)">
<path d="M396.001 8.66884C293.276 8.66883 210.001 89.7053 210.001 189.669C210.001 289.632 293.276 370.669 396.001 370.669C498.726 370.669 582.001 289.632 582.001 189.669C582.001 89.7053 498.726 8.66885 396.001 8.66884Z" fill="url(#paint1_radial_1_99)"/>
</g>
<g opacity="0.95" filter="url(#filter2_i_1_99)">
<path d="M395.501 8.66884C293.052 8.66883 210.001 89.7053 210.001 189.669C210.001 289.632 293.052 370.669 395.501 370.669C497.95 370.669 581.001 289.632 581.001 189.669C581.001 89.7053 497.95 8.66885 395.501 8.66884Z" fill="url(#paint2_linear_1_99)"/>
</g>
<g filter="url(#filter3_f_1_99)">
<path d="M582.001 146.669C582.001 206.077 562.405 263.053 527.523 305.061C492.641 347.069 445.331 370.669 396.001 370.669C346.671 370.669 299.361 347.069 264.479 305.061C229.597 263.053 210.001 206.077 210.001 146.669L582.001 146.669Z" fill="url(#paint3_linear_1_99)"/>
</g>
</g>
<g opacity="0.44" filter="url(#filter4_f_1_99)">
<path d="M582.403 213.291L208.003 213.29L582.403 213.291Z" fill="black"/>
<path d="M582.403 213.291L208.003 213.29" stroke="#8CF7FF" stroke-width="3.6"/>
</g>
<path d="M44.838 107.139V99.1465L63.1404 72.9671H74.203V98.5673H78.9523V107.139H74.203V114.669H64.2988V107.139H44.838ZM64.9939 83.8559L55.2635 98.5673H64.9939V83.8559ZM83.8035 92.9492C83.8035 86.3078 85.0777 81.0758 87.6262 77.2531C90.2132 73.4305 94.3641 71.5191 100.079 71.5191C105.793 71.5191 109.925 73.4305 112.473 77.2531C115.06 81.0758 116.354 86.3078 116.354 92.9492C116.354 99.6678 115.06 104.938 112.473 108.761C109.925 112.584 105.793 114.495 100.079 114.495C94.3641 114.495 90.2132 112.584 87.6262 108.761C85.0777 104.938 83.8035 99.6678 83.8035 92.9492ZM106.624 92.9492C106.624 89.0493 106.199 86.0568 105.349 83.9717C104.5 81.848 102.743 80.7862 100.079 80.7862C97.4145 80.7862 95.6576 81.848 94.8081 83.9717C93.9586 86.0568 93.5339 89.0493 93.5339 92.9492C93.5339 95.5749 93.6884 97.7565 93.9973 99.494C94.3062 101.193 94.924 102.583 95.8507 103.664C96.816 104.707 98.2253 105.228 100.079 105.228C101.932 105.228 103.322 104.707 104.249 103.664C105.214 102.583 105.851 101.193 106.16 99.494C106.469 97.7565 106.624 95.5749 106.624 92.9492ZM120.776 83.045C120.776 79.9174 121.664 77.5041 123.44 75.8052C125.255 74.1062 127.591 73.2567 130.448 73.2567C133.306 73.2567 135.622 74.1062 137.399 75.8052C139.175 77.5041 140.063 79.9174 140.063 83.045C140.063 86.1727 139.175 88.586 137.399 90.2849C135.622 91.9839 133.306 92.8334 130.448 92.8334C127.591 92.8334 125.255 91.9839 123.44 90.2849C121.664 88.586 120.776 86.1727 120.776 83.045ZM160.103 73.8938L137.804 114.669H128.247L150.546 73.8938H160.103ZM130.39 79.0486C128.537 79.0486 127.61 80.3808 127.61 83.045C127.61 85.6707 128.537 86.9835 130.39 86.9835C131.278 86.9835 131.973 86.6553 132.475 85.9989C132.977 85.3425 133.228 84.3579 133.228 83.045C133.228 80.3808 132.282 79.0486 130.39 79.0486ZM148.345 105.518C148.345 102.39 149.233 99.9767 151.009 98.2777C152.786 96.5788 155.102 95.7293 157.96 95.7293C160.817 95.7293 163.134 96.5788 164.91 98.2777C166.686 99.9767 167.574 102.39 167.574 105.518C167.574 108.645 166.686 111.059 164.91 112.757C163.134 114.456 160.817 115.306 157.96 115.306C155.102 115.306 152.786 114.456 151.009 112.757C149.233 111.059 148.345 108.645 148.345 105.518ZM157.902 101.521C157.014 101.521 156.319 101.849 155.817 102.506C155.353 103.162 155.122 104.166 155.122 105.518C155.122 108.143 156.048 109.456 157.902 109.456C158.79 109.456 159.485 109.128 159.987 108.471C160.489 107.815 160.74 106.83 160.74 105.518C160.74 104.205 160.489 103.22 159.987 102.564C159.485 101.869 158.79 101.521 157.902 101.521Z" fill="#F4F8FA"/>
<path d="M59.35 127.691L52.6314 145.582H49.2334L42.4891 127.691H45.6296L50.9324 142.57L56.261 127.691H59.35ZM60.8259 138.426C60.8259 137.001 61.1176 135.74 61.7011 134.642C62.3018 133.543 63.1083 132.694 64.1208 132.093C65.1505 131.475 66.2832 131.167 67.5188 131.167C68.6342 131.167 69.6038 131.39 70.4276 131.836C71.2685 132.265 71.9378 132.805 72.4354 133.458V131.398H75.3957V145.582H72.4354V143.471C71.9378 144.14 71.2599 144.698 70.4018 145.144C69.5438 145.59 68.5656 145.814 67.4673 145.814C66.2488 145.814 65.1334 145.505 64.1208 144.887C63.1083 144.252 62.3018 143.377 61.7011 142.261C61.1176 141.129 60.8259 139.85 60.8259 138.426ZM72.4354 138.477C72.4354 137.499 72.2295 136.65 71.8176 135.929C71.4229 135.208 70.8995 134.659 70.2474 134.281C69.5953 133.904 68.8917 133.715 68.1366 133.715C67.3815 133.715 66.6779 133.904 66.0257 134.281C65.3736 134.642 64.8416 135.182 64.4297 135.903C64.035 136.607 63.8377 137.448 63.8377 138.426C63.8377 139.404 64.035 140.262 64.4297 141C64.8416 141.738 65.3736 142.304 66.0257 142.699C66.695 143.076 67.3986 143.265 68.1366 143.265C68.8917 143.265 69.5953 143.076 70.2474 142.699C70.8995 142.321 71.4229 141.772 71.8176 141.051C72.2295 140.313 72.4354 139.455 72.4354 138.477ZM82.1847 126.533V145.582H79.2502V126.533H82.1847ZM98.8827 131.398V145.582H95.9481V143.909C95.4848 144.492 94.8756 144.956 94.1205 145.299C93.3826 145.625 92.5931 145.788 91.7522 145.788C90.6368 145.788 89.6328 145.556 88.7404 145.093C87.8652 144.629 87.1702 143.943 86.6554 143.033C86.1577 142.124 85.9089 141.026 85.9089 139.739V131.398H88.8177V139.301C88.8177 140.571 89.1352 141.549 89.7701 142.235C90.4051 142.905 91.2717 143.239 92.37 143.239C93.4684 143.239 94.335 142.905 94.97 142.235C95.6221 141.549 95.9481 140.571 95.9481 139.301V131.398H98.8827ZM115.754 138.143C115.754 138.675 115.72 139.155 115.651 139.584H104.814C104.9 140.717 105.32 141.626 106.075 142.313C106.83 142.999 107.757 143.342 108.855 143.342C110.434 143.342 111.55 142.682 112.202 141.36H115.368C114.939 142.665 114.158 143.737 113.026 144.578C111.91 145.402 110.52 145.814 108.855 145.814C107.5 145.814 106.281 145.513 105.2 144.913C104.136 144.295 103.295 143.437 102.677 142.338C102.077 141.223 101.776 139.936 101.776 138.477C101.776 137.018 102.068 135.74 102.652 134.642C103.252 133.526 104.085 132.668 105.149 132.067C106.23 131.467 107.465 131.167 108.855 131.167C110.194 131.167 111.387 131.458 112.434 132.042C113.48 132.625 114.296 133.449 114.879 134.513C115.463 135.56 115.754 136.77 115.754 138.143ZM112.691 137.216C112.674 136.135 112.288 135.268 111.533 134.616C110.777 133.964 109.842 133.638 108.727 133.638C107.714 133.638 106.848 133.964 106.127 134.616C105.406 135.251 104.977 136.118 104.84 137.216H112.691ZM128.264 126.533V145.582H125.329V126.533H128.264ZM138.269 145.814C136.93 145.814 135.72 145.513 134.639 144.913C133.558 144.295 132.708 143.437 132.091 142.338C131.473 141.223 131.164 139.936 131.164 138.477C131.164 137.036 131.481 135.757 132.116 134.642C132.751 133.526 133.618 132.668 134.716 132.067C135.815 131.467 137.042 131.167 138.397 131.167C139.753 131.167 140.98 131.467 142.078 132.067C143.177 132.668 144.043 133.526 144.678 134.642C145.313 135.757 145.631 137.036 145.631 138.477C145.631 139.919 145.305 141.197 144.653 142.313C144 143.428 143.108 144.295 141.975 144.913C140.86 145.513 139.624 145.814 138.269 145.814ZM138.269 143.265C139.024 143.265 139.727 143.085 140.379 142.725C141.049 142.364 141.589 141.824 142.001 141.103C142.413 140.382 142.619 139.507 142.619 138.477C142.619 137.448 142.422 136.581 142.027 135.877C141.632 135.156 141.109 134.616 140.457 134.256C139.805 133.895 139.101 133.715 138.346 133.715C137.591 133.715 136.887 133.895 136.235 134.256C135.6 134.616 135.094 135.156 134.716 135.877C134.339 136.581 134.15 137.448 134.15 138.477C134.15 140.005 134.536 141.189 135.308 142.03C136.098 142.853 137.085 143.265 138.269 143.265ZM153.68 145.814C152.565 145.814 151.561 145.616 150.668 145.222C149.793 144.81 149.098 144.26 148.583 143.574C148.068 142.87 147.794 142.09 147.76 141.232H150.797C150.849 141.832 151.132 142.338 151.647 142.75C152.179 143.145 152.839 143.342 153.629 143.342C154.452 143.342 155.087 143.188 155.534 142.879C155.997 142.553 156.229 142.141 156.229 141.643C156.229 141.111 155.971 140.717 155.456 140.459C154.959 140.202 154.161 139.919 153.062 139.61C151.998 139.318 151.132 139.035 150.462 138.76C149.793 138.486 149.21 138.065 148.712 137.499C148.231 136.933 147.991 136.186 147.991 135.259C147.991 134.504 148.214 133.818 148.66 133.2C149.107 132.565 149.742 132.067 150.565 131.707C151.406 131.347 152.367 131.167 153.448 131.167C155.062 131.167 156.357 131.578 157.335 132.402C158.331 133.209 158.863 134.316 158.931 135.723H155.997C155.945 135.088 155.688 134.582 155.225 134.204C154.761 133.826 154.135 133.638 153.345 133.638C152.573 133.638 151.981 133.784 151.569 134.075C151.157 134.367 150.952 134.753 150.952 135.234C150.952 135.611 151.089 135.929 151.363 136.186C151.638 136.444 151.973 136.65 152.367 136.804C152.762 136.941 153.345 137.121 154.118 137.345C155.147 137.619 155.988 137.902 156.64 138.194C157.31 138.469 157.885 138.88 158.365 139.43C158.846 139.979 159.094 140.708 159.112 141.618C159.112 142.424 158.889 143.145 158.442 143.78C157.996 144.415 157.361 144.913 156.537 145.273C155.731 145.633 154.778 145.814 153.68 145.814ZM165.706 133.792V141.643C165.706 142.175 165.826 142.562 166.067 142.802C166.324 143.025 166.753 143.136 167.354 143.136H169.156V145.582H166.839C165.517 145.582 164.505 145.273 163.801 144.655C163.098 144.037 162.746 143.033 162.746 141.643V133.792H161.073V131.398H162.746V127.872H165.706V131.398H169.156V133.792H165.706Z" fill="#F4F8FA"/>
<path d="M311 49.8424C311.648 49.8424 312.174 49.317 312.174 48.6688C312.174 48.0207 311.648 47.4953 311 47.4953V48.6688V49.8424ZM9.00551 151.169C9.00551 154.626 11.8077 157.428 15.2645 157.428C18.7212 157.428 21.5234 154.626 21.5234 151.169C21.5234 147.712 18.7212 144.91 15.2645 144.91C11.8077 144.91 9.00551 147.712 9.00551 151.169ZM311 48.6688V47.4953H24.6529V48.6688V49.8424H311V48.6688ZM15.2645 58.0573H14.0909V151.169H15.2645H16.438V58.0573H15.2645ZM24.6529 48.6688V47.4953C18.8197 47.4953 14.0909 52.224 14.0909 58.0573H15.2645H16.438C16.438 53.5203 20.1159 49.8424 24.6529 49.8424V48.6688Z" fill="#F4F8FA"/>
<defs>
<filter id="filter0_f_1_99" x="180.801" y="31.4688" width="461.4" height="393.4" filterUnits="userSpaceOnUse" color-interpolation-filters="sRGB">
<feFlood flood-opacity="0" result="BackgroundImageFix"/>
<feBlend mode="normal" in="SourceGraphic" in2="BackgroundImageFix" result="shape"/>
<feGaussianBlur stdDeviation="30.6" result="effect1_foregroundBlur_1_99"/>
</filter>
<filter id="filter1_f_1_99" x="148.801" y="-52.5312" width="494.4" height="484.4" filterUnits="userSpaceOnUse" color-interpolation-filters="sRGB">
<feFlood flood-opacity="0" result="BackgroundImageFix"/>
<feBlend mode="normal" in="SourceGraphic" in2="BackgroundImageFix" result="shape"/>
<feGaussianBlur stdDeviation="30.6" result="effect1_foregroundBlur_1_99"/>
</filter>
<filter id="filter2_i_1_99" x="207.001" y="-1.33118" width="374" height="372" filterUnits="userSpaceOnUse" color-interpolation-filters="sRGB">
<feFlood flood-opacity="0" result="BackgroundImageFix"/>
<feBlend mode="normal" in="SourceGraphic" in2="BackgroundImageFix" result="shape"/>
<feColorMatrix in="SourceAlpha" type="matrix" values="0 0 0 0 0 0 0 0 0 0 0 0 0 0 0 0 0 0 127 0" result="hardAlpha"/>
<feMorphology radius="1.35497" operator="dilate" in="SourceAlpha" result="effect1_innerShadow_1_99"/>
<feOffset dx="-3" dy="-10"/>
<feGaussianBlur stdDeviation="8.05"/>
<feComposite in2="hardAlpha" operator="arithmetic" k2="-1" k3="1"/>
<feColorMatrix type="matrix" values="0 0 0 0 0.403922 0 0 0 0 0.890196 0 0 0 0 0.921569 0 0 0 1 0"/>
<feBlend mode="normal" in2="shape" result="effect1_innerShadow_1_99"/>
</filter>
<filter id="filter3_f_1_99" x="181.201" y="117.869" width="429.6" height="281.6" filterUnits="userSpaceOnUse" color-interpolation-filters="sRGB">
<feFlood flood-opacity="0" result="BackgroundImageFix"/>
<feBlend mode="normal" in="SourceGraphic" in2="BackgroundImageFix" result="shape"/>
<feGaussianBlur stdDeviation="14.4" result="effect1_foregroundBlur_1_99"/>
</filter>
<filter id="filter4_f_1_99" x="179.203" y="182.69" width="432" height="61.2001" filterUnits="userSpaceOnUse" color-interpolation-filters="sRGB">
<feFlood flood-opacity="0" result="BackgroundImageFix"/>
<feBlend mode="normal" in="SourceGraphic" in2="BackgroundImageFix" result="shape"/>
<feGaussianBlur stdDeviation="14.4" result="effect1_foregroundBlur_1_99"/>
</filter>
<linearGradient id="paint0_linear_1_99" x1="297.501" y1="331.601" x2="551.11" y2="37.1169" gradientUnits="userSpaceOnUse">
<stop stop-color="#00FFD1"/>
<stop offset="0.689065" stop-color="#07083B" stop-opacity="0"/>
</linearGradient>
<radialGradient id="paint1_radial_1_99" cx="0" cy="0" r="1" gradientTransform="matrix(-0.170636 -186.424 191.574 -0.166048 396.001 254.829)" gradientUnits="userSpaceOnUse">
<stop stop-color="#8CF7FF" stop-opacity="0.62"/>
<stop offset="0.42" stop-color="#197CFF" stop-opacity="0.34"/>
<stop offset="0.923077" stop-color="#07083B" stop-opacity="0"/>
</radialGradient>
<linearGradient id="paint2_linear_1_99" x1="581.001" y1="370.669" x2="581.001" y2="8.66885" gradientUnits="userSpaceOnUse">
<stop stop-color="#8CF7FF" stop-opacity="0.3"/>
<stop offset="0.55" stop-color="#197CFF" stop-opacity="0.13"/>
<stop offset="1" stop-color="#07083B" stop-opacity="0"/>
</linearGradient>
<linearGradient id="paint3_linear_1_99" x1="412.415" y1="474.811" x2="388.383" y2="20.9575" gradientUnits="userSpaceOnUse">
<stop stop-color="#1EFAD2"/>
<stop offset="0.542816" stop-color="#7A9BE8"/>
<stop offset="0.978089" stop-color="#D9EBFE"/>
</linearGradient>
</defs>
</svg>
